<svg xmlns="http://www.w3.org/2000/svg" xmlns:xlink="http://www.w3.org/1999/xlink" width="1600" zoomAndPan="magnify" viewBox="0 0 1200 359.999987" height="480" preserveAspectRatio="xMidYMid meet" version="1.0"><defs><g/><clipPath id="c1bef028c8"><path d="M 641 0 L 1194.71875 0 L 1194.71875 360 L 641 360 Z M 641 0 " clip-rule="nonzero"/></clipPath><clipPath id="59621643fa"><rect x="0" width="554" y="0" height="360"/></clipPath><clipPath id="50a04c8838"><rect x="0" width="584" y="0" height="360"/></clipPath><clipPath id="3003539b02"><path d="M 791.816406 119.230469 L 953.667969 119.230469 L 953.667969 281.085938 L 791.816406 281.085938 Z M 791.816406 119.230469 " clip-rule="nonzero"/></clipPath><clipPath id="5970b10e54"><path d="M 872.742188 119.230469 C 828.046875 119.230469 791.816406 155.464844 791.816406 200.15625 C 791.816406 244.851562 828.046875 281.085938 872.742188 281.085938 C 917.433594 281.085938 953.667969 244.851562 953.667969 200.15625 C 953.667969 155.464844 917.433594 119.230469 872.742188 119.230469 Z M 872.742188 119.230469 " clip-rule="nonzero"/></clipPath><clipPath id="bf9569cb19"><path d="M 0.816406 0.230469 L 162.667969 0.230469 L 162.667969 162.085938 L 0.816406 162.085938 Z M 0.816406 0.230469 " clip-rule="nonzero"/></clipPath><clipPath id="b9b31bbcac"><path d="M 81.742188 0.230469 C 37.046875 0.230469 0.816406 36.464844 0.816406 81.15625 C 0.816406 125.851562 37.046875 162.085938 81.742188 162.085938 C 126.433594 162.085938 162.667969 125.851562 162.667969 81.15625 C 162.667969 36.464844 126.433594 0.230469 81.742188 0.230469 Z M 81.742188 0.230469 " clip-rule="nonzero"/></clipPath><clipPath id="3629722cb4"><rect x="0" width="163" y="0" height="163"/></clipPath><clipPath id="435e1043c3"><path d="M 804.585938 132 L 940.898438 132 L 940.898438 268.316406 L 804.585938 268.316406 Z M 804.585938 132 " clip-rule="nonzero"/></clipPath><clipPath id="0d40618f3b"><path d="M 872.742188 132 C 835.097656 132 804.585938 162.515625 804.585938 200.15625 C 804.585938 237.800781 835.097656 268.316406 872.742188 268.316406 C 910.382812 268.316406 940.898438 237.800781 940.898438 200.15625 C 940.898438 162.515625 910.382812 132 872.742188 132 Z M 872.742188 132 " clip-rule="nonzero"/></clipPath><clipPath id="f94b827f19"><path d="M 0.585938 0 L 136.898438 0 L 136.898438 136.316406 L 0.585938 136.316406 Z M 0.585938 0 " clip-rule="nonzero"/></clipPath><clipPath id="5102a08a79"><path d="M 68.742188 0 C 31.097656 0 0.585938 30.515625 0.585938 68.15625 C 0.585938 105.800781 31.097656 136.316406 68.742188 136.316406 C 106.382812 136.316406 136.898438 105.800781 136.898438 68.15625 C 136.898438 30.515625 106.382812 0 68.742188 0 Z M 68.742188 0 " clip-rule="nonzero"/></clipPath><clipPath id="097db958b7"><rect x="0" width="137" y="0" height="137"/></clipPath><clipPath id="c837907eeb"><path d="M 818.875 146.292969 L 926.605469 146.292969 L 926.605469 254.023438 L 818.875 254.023438 Z M 818.875 146.292969 " clip-rule="nonzero"/></clipPath><clipPath id="3cf0594f05"><path d="M 872.742188 146.292969 C 842.992188 146.292969 818.875 170.410156 818.875 200.15625 C 818.875 229.90625 842.992188 254.023438 872.742188 254.023438 C 902.488281 254.023438 926.605469 229.90625 926.605469 200.15625 C 926.605469 170.410156 902.488281 146.292969 872.742188 146.292969 Z M 872.742188 146.292969 " clip-rule="nonzero"/></clipPath><clipPath id="a2d1ff326a"><path d="M 0.875 0.292969 L 108.605469 0.292969 L 108.605469 108.023438 L 0.875 108.023438 Z M 0.875 0.292969 " clip-rule="nonzero"/></clipPath><clipPath id="625bd9f8e1"><path d="M 54.742188 0.292969 C 24.992188 0.292969 0.875 24.410156 0.875 54.15625 C 0.875 83.90625 24.992188 108.023438 54.742188 108.023438 C 84.488281 108.023438 108.605469 83.90625 108.605469 54.15625 C 108.605469 24.410156 84.488281 0.292969 54.742188 0.292969 Z M 54.742188 0.292969 " clip-rule="nonzero"/></clipPath><clipPath id="8e7aa6d61c"><rect x="0" width="109" y="0" height="109"/></clipPath><clipPath id="734997b6ec"><path d="M 830.695312 158.113281 L 915 158.113281 L 915 242.46875 L 830.695312 242.46875 Z M 830.695312 158.113281 " clip-rule="nonzero"/></clipPath><clipPath id="81cfce94ac"><path d="M 851.660156 205.171875 L 893.839844 205.171875 L 893.839844 227.042969 L 851.660156 227.042969 Z M 851.660156 205.171875 " clip-rule="nonzero"/></clipPath><clipPath id="d987ea0c16"><rect x="0" width="1195" y="0" height="360"/></clipPath></defs><rect x="-120" width="1440" fill="#ffffff" y="-35.999999" height="431.999984" fill-opacity="1"/><rect x="-120" width="1440" fill="#ffffff" y="-35.999999" height="431.999984" fill-opacity="1"/><g transform="matrix(1, 0, 0, 1, -0, 0)"><g clip-path="url(#d987ea0c16)"><g clip-path="url(#c1bef028c8)"><g transform="matrix(1, 0, 0, 1, 641, 0)"><g clip-path="url(#59621643fa)"><g fill="#7fe8ce" fill-opacity="1"><g transform="translate(0.280909, 280.136205)"><g><path d="M 157.15625 -201.640625 L 157.15625 -169 L 103.421875 -169 L 103.421875 0 L 62.984375 0 L 62.984375 -169 L 9.25 -169 L 9.25 -201.640625 Z M 157.15625 -201.640625 "/></g></g></g><g fill="#7fe8ce" fill-opacity="1"><g transform="translate(152.535443, 280.136205)"><g/></g></g><g fill="#7fe8ce" fill-opacity="1"><g transform="translate(206.845612, 280.136205)"><g/></g></g><g fill="#7fe8ce" fill-opacity="1"><g transform="translate(261.15578, 280.136205)"><g/></g></g><g fill="#7fe8ce" fill-opacity="1"><g transform="translate(315.472613, 280.136205)"><g><path d="M 60.375 -213.78125 L 60.375 0 L 19.9375 0 L 19.9375 -213.78125 Z M 60.375 -213.78125 "/></g></g></g><g fill="#7fe8ce" fill-opacity="1"><g transform="translate(381.338144, 280.136205)"><g><path d="M 114.6875 0 L 60.375 -68.171875 L 60.375 0 L 19.9375 0 L 19.9375 -213.78125 L 60.375 -213.78125 L 60.375 -92.15625 L 114.109375 -160.046875 L 166.6875 -160.046875 L 96.203125 -79.734375 L 167.265625 0 Z M 114.6875 0 "/></g></g></g></g></g></g><g transform="matrix(1, 0, 0, 1, -0, 0)"><g clip-path="url(#50a04c8838)"><g fill="#94b9ff" fill-opacity="1"><g transform="translate(-6.364807, 280.136205)"><g><path d="M 60.375 -32.0625 L 126.828125 -32.0625 L 126.828125 0 L 19.9375 0 L 19.9375 -201.640625 L 60.375 -201.640625 Z M 60.375 -32.0625 "/></g></g></g><g fill="#94b9ff" fill-opacity="1"><g transform="translate(111.788654, 280.136205)"><g><path d="M 168.71875 -83.484375 C 168.71875 -77.710938 168.332031 -72.515625 167.5625 -67.890625 L 50.5625 -67.890625 C 51.519531 -56.335938 55.5625 -47.285156 62.6875 -40.734375 C 69.8125 -34.179688 78.578125 -30.90625 88.984375 -30.90625 C 104.003906 -30.90625 114.691406 -37.359375 121.046875 -50.265625 L 164.671875 -50.265625 C 160.046875 -34.859375 151.179688 -22.195312 138.078125 -12.28125 C 124.984375 -2.363281 108.90625 2.59375 89.84375 2.59375 C 74.4375 2.59375 60.617188 -0.820312 48.390625 -7.65625 C 36.160156 -14.488281 26.625 -24.164062 19.78125 -36.6875 C 12.945312 -49.207031 9.53125 -63.648438 9.53125 -80.015625 C 9.53125 -96.585938 12.898438 -111.128906 19.640625 -123.640625 C 26.378906 -136.160156 35.816406 -145.789062 47.953125 -152.53125 C 60.085938 -159.269531 74.050781 -162.640625 89.84375 -162.640625 C 105.0625 -162.640625 118.6875 -159.363281 130.71875 -152.8125 C 142.757812 -146.269531 152.101562 -136.976562 158.75 -124.9375 C 165.394531 -112.90625 168.71875 -99.085938 168.71875 -83.484375 Z M 126.828125 -95.046875 C 126.628906 -105.441406 122.867188 -113.769531 115.546875 -120.03125 C 108.234375 -126.289062 99.28125 -129.421875 88.6875 -129.421875 C 78.675781 -129.421875 70.25 -126.382812 63.40625 -120.3125 C 56.570312 -114.25 52.382812 -105.828125 50.84375 -95.046875 Z M 126.828125 -95.046875 "/></g></g></g><g fill="#94b9ff" fill-opacity="1"><g transform="translate(275.58576, 280.136205)"><g><path d="M 67.015625 -126.828125 L 67.015625 -49.40625 C 67.015625 -44.007812 68.316406 -40.109375 70.921875 -37.703125 C 73.523438 -35.296875 77.90625 -34.09375 84.0625 -34.09375 L 102.84375 -34.09375 L 102.84375 0 L 77.421875 0 C 43.328125 0 26.28125 -16.5625 26.28125 -49.6875 L 26.28125 -126.828125 L 7.21875 -126.828125 L 7.21875 -160.046875 L 26.28125 -160.046875 L 26.28125 -199.625 L 67.015625 -199.625 L 67.015625 -160.046875 L 102.84375 -160.046875 L 102.84375 -126.828125 Z M 67.015625 -126.828125 "/></g></g></g><g fill="#94b9ff" fill-opacity="1"><g transform="translate(373.228487, 280.136205)"><g><path d="M 28.015625 -201.640625 L 70.484375 -201.640625 L 39.296875 -128.84375 L 11.5625 -128.84375 Z M 28.015625 -201.640625 "/></g></g></g><g fill="#94b9ff" fill-opacity="1"><g transform="translate(438.22735, 280.136205)"><g><path d="M 81.171875 2.59375 C 68.078125 2.59375 56.328125 0.234375 45.921875 -4.484375 C 35.523438 -9.203125 27.296875 -15.601562 21.234375 -23.6875 C 15.171875 -31.78125 11.847656 -40.738281 11.265625 -50.5625 L 52 -50.5625 C 52.769531 -44.394531 55.800781 -39.285156 61.09375 -35.234375 C 66.394531 -31.191406 72.992188 -29.171875 80.890625 -29.171875 C 88.585938 -29.171875 94.601562 -30.710938 98.9375 -33.796875 C 103.269531 -36.878906 105.4375 -40.828125 105.4375 -45.640625 C 105.4375 -50.835938 102.789062 -54.738281 97.5 -57.34375 C 92.207031 -59.945312 83.78125 -62.785156 72.21875 -65.859375 C 60.28125 -68.753906 50.503906 -71.738281 42.890625 -74.8125 C 35.285156 -77.894531 28.738281 -82.613281 23.25 -88.96875 C 17.757812 -95.332031 15.015625 -103.90625 15.015625 -114.6875 C 15.015625 -123.550781 17.566406 -131.640625 22.671875 -138.953125 C 27.773438 -146.273438 35.09375 -152.050781 44.625 -156.28125 C 54.164062 -160.519531 65.390625 -162.640625 78.296875 -162.640625 C 97.359375 -162.640625 112.570312 -157.875 123.9375 -148.34375 C 135.300781 -138.8125 141.5625 -125.957031 142.71875 -109.78125 L 104 -109.78125 C 103.425781 -116.132812 100.78125 -121.1875 96.0625 -124.9375 C 91.34375 -128.695312 85.035156 -130.578125 77.140625 -130.578125 C 69.816406 -130.578125 64.179688 -129.226562 60.234375 -126.53125 C 56.285156 -123.832031 54.3125 -120.078125 54.3125 -115.265625 C 54.3125 -109.867188 57.003906 -105.773438 62.390625 -102.984375 C 67.785156 -100.191406 76.164062 -97.351562 87.53125 -94.46875 C 99.09375 -91.582031 108.628906 -88.597656 116.140625 -85.515625 C 123.648438 -82.429688 130.148438 -77.660156 135.640625 -71.203125 C 141.128906 -64.753906 143.96875 -56.234375 144.15625 -45.640625 C 144.15625 -36.398438 141.601562 -28.117188 136.5 -20.796875 C 131.394531 -13.484375 124.078125 -7.753906 114.546875 -3.609375 C 105.015625 0.523438 93.890625 2.59375 81.171875 2.59375 Z M 81.171875 2.59375 "/></g></g></g></g></g><g clip-path="url(#3003539b02)"><g clip-path="url(#5970b10e54)"><g transform="matrix(1, 0, 0, 1, 791, 119)"><g clip-path="url(#3629722cb4)"><g clip-path="url(#bf9569cb19)"><g clip-path="url(#b9b31bbcac)"><path fill="#ffe3d9" d="M 0.816406 0.230469 L 162.667969 0.230469 L 162.667969 162.085938 L 0.816406 162.085938 Z M 0.816406 0.230469 " fill-opacity="1" fill-rule="nonzero"/></g></g></g></g></g></g><g clip-path="url(#435e1043c3)"><g clip-path="url(#0d40618f3b)"><g transform="matrix(1, 0, 0, 1, 804, 132)"><g clip-path="url(#097db958b7)"><g clip-path="url(#f94b827f19)"><g clip-path="url(#5102a08a79)"><path fill="#ffc6b3" d="M 0.585938 0 L 136.898438 0 L 136.898438 136.316406 L 0.585938 136.316406 Z M 0.585938 0 " fill-opacity="1" fill-rule="nonzero"/></g></g></g></g></g></g><g clip-path="url(#c837907eeb)"><g clip-path="url(#3cf0594f05)"><g transform="matrix(1, 0, 0, 1, 818, 146)"><g clip-path="url(#8e7aa6d61c)"><g clip-path="url(#a2d1ff326a)"><g clip-path="url(#625bd9f8e1)"><path fill="#ffac99" d="M 0.875 0.292969 L 108.605469 0.292969 L 108.605469 108.023438 L 0.875 108.023438 Z M 0.875 0.292969 " fill-opacity="1" fill-rule="nonzero"/></g></g></g></g></g></g><g clip-path="url(#734997b6ec)"><path fill="#7fe8ce" d="M 872.738281 242.203125 C 849.617188 242.203125 830.695312 223.28125 830.695312 200.15625 C 830.695312 177.03125 849.617188 158.113281 872.738281 158.113281 C 895.863281 158.113281 914.785156 177.03125 914.785156 200.15625 C 914.785156 223.28125 895.863281 242.203125 872.738281 242.203125 Z M 872.738281 242.203125 " fill-opacity="1" fill-rule="nonzero"/></g><g clip-path="url(#81cfce94ac)"><path fill="#6293e9" d="M 872.738281 227.042969 C 861.117188 227.042969 851.664062 217.585938 851.664062 205.96875 C 851.664062 205.414062 852.113281 204.964844 852.667969 204.964844 C 853.222656 204.964844 853.671875 205.414062 853.671875 205.96875 C 853.671875 216.480469 862.226562 225.035156 872.738281 225.035156 C 883.253906 225.035156 891.804688 216.480469 891.804688 205.96875 C 891.804688 205.414062 892.253906 204.964844 892.808594 204.964844 C 893.363281 204.964844 893.8125 205.414062 893.8125 205.96875 C 893.8125 217.585938 884.359375 227.042969 872.738281 227.042969 Z M 872.738281 227.042969 " fill-opacity="1" fill-rule="nonzero"/></g></g></g></svg>