<svg width="523" height="111" viewBox="0 0 523 111" fill="none" xmlns="http://www.w3.org/2000/svg">
<path d="M136.03 29.4365C157.72 29.4366 173.213 42.916 173.213 69.7188C173.213 96.5212 157.72 110 136.03 110C114.34 110 98.8469 96.5213 98.8467 69.7188C98.8467 42.9159 114.34 29.4365 136.03 29.4365ZM280.235 29.4365C300.841 29.4365 313.545 40.9017 315.095 60.4229H298.827C297.898 48.6482 291.235 41.8311 280.235 41.8311C267.686 41.8312 259.32 51.1273 259.32 69.7188C259.32 88.3099 267.686 97.6054 280.235 97.6055C291.235 97.6055 297.898 90.7883 298.827 79.0137H315.095C313.545 98.5348 300.841 110 280.235 110C258.545 110 243.053 96.5212 243.053 69.7188C243.053 42.916 258.545 29.4366 280.235 29.4365ZM356.275 29.4365C375.951 29.4365 388.036 37.4931 388.036 53.2959V86.7607C388.036 96.6761 388.192 98.071 392.685 108.451H376.417L371.924 95.5918C367.121 104.887 357.98 110 346.205 110C332.571 110 321.262 102.408 321.262 87.5352C321.262 54.2254 372.543 73.1267 372.543 53.2959C372.543 45.7043 366.656 42.1406 356.275 42.1406C346.515 42.1407 340.318 45.7042 340.008 52.6758H324.36C324.36 37.1831 336.6 29.4366 356.275 29.4365ZM486.474 29.4365C506.924 29.4366 522.107 42.916 522.107 69.7188V74.3662H465.248C465.868 89.8591 474.234 97.6055 486.474 97.6055C497.474 97.6054 502.896 92.1827 504.445 85.2109H520.713C518.544 100.549 505.065 110 486.474 110C464.784 110 449.29 96.6762 449.29 69.7188C449.29 42.761 464.783 29.4365 486.474 29.4365ZM15.8027 46.4785H69.9297V0H85.7324V108.451H69.9297V60.4229H15.8027V108.451H0V0H15.8027V46.4785ZM200.374 108.451H184.881V0H200.374V108.451ZM231.396 108.451H215.903V30.9863H231.396V108.451ZM440.113 30.2109C442.592 30.2109 444.451 30.5216 446.155 30.9863V45.2393C444.451 44.7745 442.592 44.4649 440.113 44.4648C427.254 44.4648 418.269 51.7469 418.269 66.6201V108.451H402.775V30.9863H417.184V48.6475C420.902 36.0984 429.268 30.2109 440.113 30.2109ZM150.933 46.3125C144.13 43.898 137.485 47.0922 133.153 54.5771C132.464 55.7687 130.792 56.7347 128.945 55.999C125.596 54.6648 121.988 54.4278 119.491 55.7285C110.855 60.2281 110.494 72.2825 115.159 82.2871C119.483 91.5592 128.924 97.7626 136.032 97.7627C146.841 97.7627 155.554 84.1593 158.434 75.5215C162.032 64.7258 161.237 49.9701 150.933 46.3125ZM372.543 65.6904C360.768 73.1268 337.374 71.1129 337.374 85.8311C337.374 94.0423 342.797 97.6055 352.248 97.6055C362.628 97.6052 372.543 89.8585 372.543 75.915V65.6904ZM486.474 41.8311C475.009 41.8311 466.952 48.6478 465.558 61.9717H505.994C504.755 48.6479 497.164 41.8311 486.474 41.8311Z" fill="#26479C"/>
<path d="M223.5 16C219.125 16 216 13.3231 216 8C216 2.67692 219.125 0 223.5 0C227.875 0 231 2.67692 231 8C231 13.3231 227.875 16 223.5 16Z" fill="#26479C"/>
<g clip-path="url(#clip0_209_1272)">
<path d="M136.03 29.4365C157.72 29.4366 173.213 42.916 173.213 69.7188C173.213 96.5212 157.72 110 136.03 110C114.34 110 98.8469 96.5213 98.8467 69.7188C98.8467 42.9159 114.34 29.4365 136.03 29.4365ZM280.235 29.4365C300.841 29.4365 313.545 40.9017 315.095 60.4229H298.827C297.898 48.6482 291.235 41.8311 280.235 41.8311C267.686 41.8312 259.32 51.1273 259.32 69.7188C259.32 88.3099 267.686 97.6054 280.235 97.6055C291.235 97.6055 297.898 90.7883 298.827 79.0137H315.095C313.545 98.5348 300.841 110 280.235 110C258.545 110 243.053 96.5212 243.053 69.7188C243.053 42.916 258.545 29.4366 280.235 29.4365ZM356.275 29.4365C375.951 29.4365 388.036 37.4931 388.036 53.2959V86.7607C388.036 96.6761 388.192 98.071 392.685 108.451H376.417L371.924 95.5918C367.121 104.887 357.98 110 346.205 110C332.571 110 321.262 102.408 321.262 87.5352C321.262 54.2254 372.543 73.1267 372.543 53.2959C372.543 45.7043 366.656 42.1406 356.275 42.1406C346.515 42.1407 340.318 45.7042 340.008 52.6758H324.36C324.36 37.1831 336.6 29.4366 356.275 29.4365ZM486.474 29.4365C506.924 29.4366 522.107 42.916 522.107 69.7188V74.3662H465.248C465.868 89.8591 474.234 97.6055 486.474 97.6055C497.474 97.6054 502.896 92.1827 504.445 85.2109H520.713C518.544 100.549 505.065 110 486.474 110C464.784 110 449.29 96.6762 449.29 69.7188C449.29 42.761 464.783 29.4365 486.474 29.4365ZM15.8027 46.4785H69.9297V0H85.7324V108.451H69.9297V60.4229H15.8027V108.451H0V0H15.8027V46.4785ZM200.374 108.451H184.881V0H200.374V108.451ZM231.396 108.451H215.903V30.9863H231.396V108.451ZM440.113 30.2109C442.592 30.2109 444.451 30.5216 446.155 30.9863V45.2393C444.451 44.7745 442.592 44.4649 440.113 44.4648C427.254 44.4648 418.269 51.7469 418.269 66.6201V108.451H402.775V30.9863H417.184V48.6475C420.902 36.0984 429.268 30.2109 440.113 30.2109ZM150.933 46.3125C144.13 43.898 137.485 47.0922 133.153 54.5771C132.464 55.7687 130.792 56.7347 128.945 55.999C125.596 54.6648 121.988 54.4278 119.491 55.7285C110.855 60.2281 110.494 72.2825 115.159 82.2871C119.483 91.5592 128.924 97.7626 136.032 97.7627C146.841 97.7627 155.554 84.1593 158.434 75.5215C162.032 64.7258 161.237 49.9701 150.933 46.3125ZM372.543 65.6904C360.768 73.1268 337.374 71.1129 337.374 85.8311C337.374 94.0423 342.797 97.6055 352.248 97.6055C362.628 97.6052 372.543 89.8585 372.543 75.915V65.6904ZM486.474 41.8311C475.009 41.8311 466.952 48.6478 465.558 61.9717H505.994C504.755 48.6479 497.164 41.8311 486.474 41.8311ZM231.396 15.4932H215.903V0H231.396V15.4932Z" fill="#0065FF"/>
</g>
<defs>
<clipPath id="clip0_209_1272">
<rect width="84" height="110" fill="white" transform="translate(95 0.5)"/>
</clipPath>
</defs>
</svg>
